<svg xmlns="http://www.w3.org/2000/svg" width="331.422" height="117.041" viewBox="0 0 331.422 117.041" fill="none" role="img">
<defs><linearGradient id="tacui-text-3" gradientUnits="userSpaceOnUse" x1="206.41" y1="10.62" x2="325.42" y2="98.12"><stop offset="0" stop-color="#0891B2"/><stop offset="1" stop-color="#7C3AED"/></linearGradient></defs>
<g transform="translate(0.000 0.000) scale(0.50588)">
    <defs>
      <clipPath id="tacui-clip-0"><path d="M156.04 40.89L142.71 51.64L106.64 51.64L80.02 177.33L66.74 188.09L50.88 188.09L42.15 177.32L68.66 51.64L32.00 51.64L23.33 40.89L25.31 31.75L38.64 21.00L149.36 21.00L158.03 31.75L156.04 40.89ZM258.34 148.70Q257.53 152.32 256.77 157.44Q256.01 162.57 255.37 168.10Q254.73 173.64 254.32 178.94Q253.91 184.24 253.91 188.09L216.63 188.09Q216.63 186.34 216.80 183.60Q216.98 180.86 217.21 178.01Q217.44 175.15 217.73 172.42Q218.03 169.68 218.26 167.81L217.79 167.81Q214.41 172.36 210.80 176.55Q207.19 180.75 202.76 183.95Q198.33 187.15 192.92 189.08Q187.50 191.00 180.39 191.00Q171.65 191.00 164.84 187.85Q158.02 184.71 153.36 178.77Q148.70 172.82 146.25 164.26Q143.80 155.69 143.80 144.86Q143.80 139.38 145.03 131.40Q146.25 123.42 149.45 114.62Q152.66 105.83 158.37 97.14Q164.08 88.46 172.99 81.47Q181.91 74.48 194.55 70.17Q207.19 65.86 224.32 65.86Q230.96 65.86 237.66 66.38Q244.36 66.91 250.83 67.78Q257.29 68.66 263.35 69.82Q269.41 70.99 274.65 72.15L258.34 148.70ZM233.29 92.89Q230.61 92.31 227.35 92.02Q224.08 91.73 221.17 91.73Q213.13 91.73 207.07 94.41Q201.01 97.09 196.53 101.40Q192.04 105.71 189.01 111.19Q185.98 116.66 184.18 122.31Q182.37 127.96 181.61 133.32Q180.86 138.68 180.86 142.76Q180.86 147.07 181.73 150.74Q182.60 154.41 184.47 157.09Q186.33 159.77 189.07 161.29Q191.81 162.80 195.42 162.80Q202.06 162.80 207.25 158.96Q212.43 155.11 216.34 149.11Q220.24 143.11 222.86 135.60Q225.48 128.08 227.11 120.74L233.29 92.89ZM377.88 101.51Q373.92 98.48 367.63 96.27Q361.34 94.06 354.00 94.06Q345.49 94.06 338.62 98.02Q331.74 101.98 326.96 108.27Q322.19 114.56 319.62 122.37Q317.06 130.18 317.06 137.75Q317.06 149.75 322.65 156.28Q328.25 162.80 339.43 162.80Q342.93 162.80 346.71 162.10Q350.50 161.40 354.23 160.18Q357.96 158.96 361.39 157.44Q364.83 155.93 367.63 154.18L361.92 182.38Q354.00 186.46 345.02 188.73Q336.05 191.00 327.08 191.00Q315.43 191.00 306.63 187.39Q297.83 183.78 291.89 177.25Q285.95 170.73 282.98 161.70Q280.01 152.67 280.01 141.83Q280.01 131.81 282.28 122.31Q284.55 112.82 288.86 104.43Q293.17 96.04 299.52 88.93Q305.87 81.82 314.09 76.70Q322.30 71.57 332.27 68.71Q342.23 65.86 353.76 65.86Q359.12 65.86 363.90 66.50Q368.68 67.14 372.64 68.13Q376.60 69.12 379.63 70.35Q382.66 71.57 384.52 72.62L377.88 101.51Z" clip-rule="evenodd"/></clipPath>
      <linearGradient id="tacui-rim-0" gradientUnits="userSpaceOnUse" x1="12.6" y1="8.4" x2="251.425" y2="212">
        <stop offset="0" stop-color="#FFFFFF" stop-opacity="1"/>
        <stop offset="0.42" stop-color="#FFFFFF" stop-opacity="0.24"/>
        <stop offset="1" stop-color="#FFFFFF" stop-opacity="0.04"/>
      </linearGradient>
    </defs>
    <g transform="translate(6.5 7.5)" clip-path="url(#tacui-clip-0)">
      <g fill-opacity="1">
        <polygon points="244.36,66.91 269.41,70.99 241.45,92.43" fill="#3F4581" stroke="#2F335F"/>
        <polygon points="183.11,84.32 206.03,70.91 201.01,97.09" fill="#2A3C7F" stroke="#1F2C5E"/>
        <polygon points="206.03,70.91 213.13,91.73 201.01,97.09" fill="#2F3E7F" stroke="#232E5E"/>
        <polygon points="157.44,125.84 159.06,108.12 185.98,116.66" fill="#1F397E" stroke="#172A5D"/>
        <polygon points="157.44,125.84 185.98,116.66 180.86,138.68" fill="#253D7F" stroke="#1C2D5E"/>
        <polygon points="241.45,92.43 213.13,91.73 227.44,118.49" fill="#374180" stroke="#28305F"/>
        <polygon points="344.59,169.51 363.84,158.78 361.92,182.38" fill="#30206F" stroke="#241852"/>
        <polygon points="344.59,169.51 361.92,182.38 336.05,191.00" fill="#2E206D" stroke="#221851"/>
        <polygon points="274.65,152.43 258.34,148.70 256.01,162.57 274.65,155.73" fill="#2C307E" stroke="#21235E"/>
        <polygon points="274.65,155.73 256.01,162.57 274.65,171.77" fill="#2B2D7E" stroke="#20215D"/>
        <polygon points="274.65,132.81 258.34,148.70 274.65,152.43" fill="#32347F" stroke="#25275E"/>
        <polygon points="322.19,114.56 317.06,130.18 295.66,114.53" fill="#3A337F" stroke="#2B265E"/>
        <polygon points="365.61,89.70 359.12,65.86 376.60,69.12" fill="#463480" stroke="#33265F"/>
        <polygon points="26.81,24.84 40.74,23.46 40.72,21.00 27.64,21.00" fill="#40697E" stroke="#2F4E5E"/>
        <polygon points="32.00,51.64 21.42,49.72 23.03,42.28 33.44,37.04" fill="#3D6A7E" stroke="#2D4E5D"/>
        <polygon points="23.03,42.28 25.59,30.46 33.44,37.04" fill="#3C6A7E" stroke="#2C4E5D"/>
        <polygon points="40.74,23.46 26.81,24.84 25.59,30.46 33.44,37.04" fill="#3F697E" stroke="#2F4E5D"/>
        <polygon points="50.73,21.00 40.74,23.46 40.72,21.00" fill="#40677F" stroke="#2F4C5E"/>
        <polygon points="75.12,21.00 69.31,48.52 57.88,21.00" fill="#406380" stroke="#30495F"/>
        <polygon points="75.12,21.00 89.72,21.00 69.98,50.12 69.31,48.52" fill="#587187" stroke="#415364"/>
        <polygon points="149.36,21.00 126.67,21.00 127.09,22.68" fill="#2D4C7F" stroke="#22395E"/>
        <polygon points="126.67,21.00 121.48,21.00 127.09,22.68" fill="#35547F" stroke="#273E5E"/>
        <polygon points="156.04,40.89 149.36,21.00 160.23,21.56" fill="#233D7F" stroke="#1A2D5E"/>
        <polygon points="160.23,21.56 149.36,21.00 160.36,21.00" fill="#253E7F" stroke="#1C2E5E"/>
        <polygon points="32.00,51.64 33.44,37.04 55.87,40.61" fill="#3A667E" stroke="#2B4B5D"/>
        <polygon points="40.74,23.46 33.44,37.04 55.87,40.61" fill="#3F677F" stroke="#2F4C5E"/>
        <polygon points="40.74,23.46 50.73,21.00 57.11,21.00 55.87,40.61" fill="#3D657F" stroke="#2D4B5E"/>
        <polygon points="69.10,49.53 69.31,48.52 57.88,21.00 57.11,21.00 55.87,40.61" fill="#3C637F" stroke="#2D495E"/>
        <polygon points="69.10,49.53 69.98,50.12 69.31,48.52" fill="#537087" stroke="#3D5364"/>
        <polygon points="78.41,51.64 69.98,50.12 89.72,21.00 90.01,21.00 88.09,51.64" fill="#566F87" stroke="#3F5264"/>
        <polygon points="78.41,51.64 88.09,51.64 87.98,53.37" fill="#3C4E7B" stroke="#2C3A5B"/>
        <polygon points="106.64,51.64 90.28,21.00 90.01,21.00 88.09,51.64" fill="#546D87" stroke="#3E5164"/>
        <polygon points="106.64,51.64 88.09,51.64 87.98,53.37" fill="#35487A" stroke="#28365B"/>
        <polygon points="106.64,51.64 109.88,36.37 117.60,42.54" fill="#2C537E" stroke="#213E5E"/>
        <polygon points="106.64,51.64 90.28,21.00 90.62,21.00 109.88,36.37" fill="#4F6A87" stroke="#3A4E64"/>
        <polygon points="109.88,36.37 111.53,28.55 117.60,42.54" fill="#32567F" stroke="#25405E"/>
        <polygon points="109.88,36.37 90.62,21.00 108.26,21.00 111.53,28.55" fill="#506A87" stroke="#3B4F64"/>
        <polygon points="111.53,28.55 113.13,21.00 121.48,21.00 127.09,22.68 117.60,42.54" fill="#2E517F" stroke="#223C5E"/>
        <polygon points="111.53,28.55 108.26,21.00 113.13,21.00" fill="#4D6787" stroke="#394C64"/>
        <polygon points="156.04,40.89 142.71,51.64 138.30,36.75" fill="#1F407E" stroke="#172F5D"/>
        <polygon points="156.04,40.89 149.36,21.00 138.30,36.75" fill="#21407E" stroke="#182F5D"/>
        <polygon points="149.36,21.00 127.09,22.68 138.30,36.75" fill="#25467E" stroke="#1C345E"/>
        <polygon points="127.09,22.68 117.60,42.54 138.30,36.75" fill="#25497E" stroke="#1B365D"/>
        <polygon points="142.71,51.64 117.60,42.54 138.30,36.75" fill="#23467E" stroke="#1A345D"/>
        <polygon points="205.75,65.86 206.03,70.91 213.90,65.86" fill="#2E3C7F" stroke="#222D5E"/>
        <polygon points="241.48,65.86 244.36,66.91 243.97,65.86" fill="#343E80" stroke="#272E5E"/>
        <polygon points="245.19,65.86 244.36,66.91 269.41,70.99 265.35,65.86" fill="#3F4380" stroke="#2E325F"/>
        <polygon points="245.19,65.86 244.36,66.91 243.97,65.86" fill="#373F80" stroke="#292E5F"/>
        <polygon points="274.08,65.86 269.41,70.99 265.35,65.86" fill="#424581" stroke="#31335F"/>
        <polygon points="341.65,65.86 341.50,66.37 359.12,65.86" fill="#4A3E81" stroke="#362E5F"/>
        <polygon points="359.12,65.86 376.60,69.12 377.36,65.86" fill="#493780" stroke="#36295F"/>
        <polygon points="21.00,51.64 32.00,51.64 21.42,49.72" fill="#39697D" stroke="#2A4D5D"/>
        <polygon points="32.00,51.64 55.87,40.61 54.31,51.64" fill="#34637D" stroke="#26495D"/>
        <polygon points="68.66,51.64 69.10,49.53 55.87,40.61 54.31,51.64" fill="#2D5E7D" stroke="#22455C"/>
        <polygon points="68.66,51.64 68.77,51.64 69.98,50.12 69.10,49.53" fill="#4C6F87" stroke="#385264"/>
        <polygon points="70.16,51.64 69.98,50.12 78.41,51.64" fill="#4B6C87" stroke="#375064"/>
        <polygon points="70.16,51.64 78.41,51.64 87.98,53.37 72.91,74.62" fill="#263969" stroke="#1C2A4E"/>
        <polygon points="70.16,51.64 69.98,50.12 68.77,51.64" fill="#486D87" stroke="#355064"/>
        <polygon points="70.16,51.64 68.77,51.64 68.62,51.83 63.88,74.28 72.91,74.62" fill="#263A6C" stroke="#1C2B50"/>
        <polygon points="106.64,51.64 87.98,53.37 99.16,77.42" fill="#223366" stroke="#19264C"/>
        <polygon points="87.98,53.37 72.91,74.62 99.16,77.42" fill="#22356A" stroke="#1A274F"/>
        <polygon points="106.64,51.64 117.60,42.54 119.69,51.64" fill="#20497D" stroke="#17365D"/>
        <polygon points="142.71,51.64 117.60,42.54 119.69,51.64" fill="#1F457D" stroke="#17335D"/>
        <polygon points="106.64,51.64 99.16,77.42 101.20,77.35" fill="#203068" stroke="#18234D"/>
        <polygon points="153.71,51.64 156.04,40.89 142.71,51.64" fill="#1D3A7E" stroke="#152B5D"/>
        <polygon points="169.42,65.86 163.85,65.86 172.55,71.71" fill="#1D3A7E" stroke="#152B5D"/>
        <polygon points="162.24,87.20 183.11,84.32 172.55,71.71" fill="#233B7F" stroke="#1A2C5E"/>
        <polygon points="169.42,65.86 174.84,65.86 172.55,71.71" fill="#1D377E" stroke="#16295D"/>
        <polygon points="162.24,87.20 143.80,76.51 143.80,74.94 172.55,71.71" fill="#1E3A7E" stroke="#162B5D"/>
        <polygon points="163.85,65.86 143.80,65.86 143.80,74.94 172.55,71.71" fill="#1A3A7E" stroke="#142B5D"/>
        <polygon points="191.87,65.86 194.01,65.86 192.61,68.66" fill="#263A7F" stroke="#1C2B5E"/>
        <polygon points="206.03,70.91 205.75,65.86 194.01,65.86 192.61,68.66" fill="#283A7F" stroke="#1E2B5E"/>
        <polygon points="183.11,84.32 206.03,70.91 192.61,68.66" fill="#26397F" stroke="#1C2A5E"/>
        <polygon points="183.11,84.32 172.55,71.71 192.61,68.66" fill="#243A7F" stroke="#1B2B5E"/>
        <polygon points="191.87,65.86 174.84,65.86 172.55,71.71 192.61,68.66" fill="#243A7F" stroke="#1B2B5E"/>
        <polygon points="206.03,70.91 213.90,65.86 222.75,65.86 220.41,78.93" fill="#2F3D7F" stroke="#232D5E"/>
        <polygon points="206.03,70.91 213.13,91.73 220.41,78.93" fill="#334180" stroke="#26305F"/>
        <polygon points="241.45,92.43 213.13,91.73 220.41,78.93" fill="#344080" stroke="#272F5F"/>
        <polygon points="227.30,65.86 241.48,65.86 244.36,66.91 232.37,75.41" fill="#374080" stroke="#29305F"/>
        <polygon points="227.30,65.86 222.75,65.86 220.41,78.93 232.37,75.41" fill="#343F80" stroke="#262F5F"/>
        <polygon points="244.36,66.91 241.45,92.43 232.37,75.41" fill="#3A4280" stroke="#2B315F"/>
        <polygon points="241.45,92.43 220.41,78.93 232.37,75.41" fill="#364080" stroke="#28305F"/>
        <polygon points="274.65,70.41 269.41,70.99 274.65,76.06" fill="#464781" stroke="#343460"/>
        <polygon points="280.01,69.83 280.01,81.24 290.93,91.80 289.74,68.76" fill="#464781" stroke="#343460"/>
        <polygon points="290.93,91.80 302.10,81.36 289.74,68.76" fill="#474681" stroke="#353460"/>
        <polygon points="274.65,70.41 269.41,70.99 274.08,65.86 274.65,65.86" fill="#454681" stroke="#33345F"/>
        <polygon points="280.01,69.83 280.01,65.86 289.63,65.86 289.74,68.76" fill="#454681" stroke="#33345F"/>
        <polygon points="289.63,65.86 292.36,65.86 289.74,68.76" fill="#464481" stroke="#34325F"/>
        <polygon points="319.49,65.86 312.34,65.86 313.71,71.84" fill="#4A4581" stroke="#373360"/>
        <polygon points="312.34,65.86 292.36,65.86 289.74,68.76 313.71,71.84" fill="#484581" stroke="#35335F"/>
        <polygon points="302.10,81.36 289.74,68.76 313.71,71.84" fill="#474481" stroke="#35325F"/>
        <polygon points="327.58,65.86 340.43,65.86 341.50,66.37 330.08,76.81" fill="#494181" stroke="#36305F"/>
        <polygon points="327.58,65.86 319.49,65.86 313.71,71.84 330.08,76.81" fill="#494281" stroke="#36315F"/>
        <polygon points="365.61,89.70 345.49,94.06 348.22,79.64" fill="#423380" stroke="#31255E"/>
        <polygon points="365.61,89.70 359.12,65.86 348.22,79.64" fill="#453680" stroke="#33285F"/>
        <polygon points="341.50,66.37 359.12,65.86 348.22,79.64" fill="#483B80" stroke="#352C5F"/>
        <polygon points="341.50,66.37 330.08,76.81 348.22,79.64" fill="#473C80" stroke="#342D5F"/>
        <polygon points="384.52,68.32 376.60,69.12 377.36,65.86 384.52,65.86" fill="#483280" stroke="#35255F"/>
        <polygon points="63.88,74.28 72.91,74.62 62.59,80.39" fill="#253B75" stroke="#1B2C56"/>
        <polygon points="72.91,74.62 99.16,77.42 74.64,95.03" fill="#233673" stroke="#1A2855"/>
        <polygon points="72.91,74.62 62.59,80.39 60.19,91.78 74.64,95.03" fill="#243976" stroke="#1A2A58"/>
        <polygon points="99.06,87.45 99.16,77.42 74.64,95.03 96.42,99.89" fill="#223474" stroke="#192656"/>
        <polygon points="100.86,78.93 99.16,77.42 101.20,77.35" fill="#233275" stroke="#1A2557"/>
        <polygon points="100.86,78.93 99.16,77.42 99.06,87.45" fill="#233274" stroke="#1A2556"/>
        <polygon points="143.80,94.03 159.06,108.12 162.24,87.20 143.80,92.76" fill="#1B397E" stroke="#142B5D"/>
        <polygon points="143.80,92.76 162.24,87.20 143.80,76.51" fill="#1A3B7E" stroke="#132B5D"/>
        <polygon points="159.06,108.12 162.24,87.20 177.98,99.92" fill="#1F397E" stroke="#172B5D"/>
        <polygon points="162.24,87.20 183.11,84.32 177.98,99.92" fill="#233B7F" stroke="#1A2B5E"/>
        <polygon points="159.06,108.12 185.98,116.66 177.98,99.92" fill="#263D7F" stroke="#1C2D5E"/>
        <polygon points="183.11,84.32 201.01,97.09 177.98,99.92" fill="#283C7F" stroke="#1E2D5E"/>
        <polygon points="201.01,97.09 185.98,116.66 177.98,99.92" fill="#273C7F" stroke="#1D2C5E"/>
        <polygon points="269.41,70.99 241.45,92.43 272.34,99.76" fill="#404481" stroke="#2F325F"/>
        <polygon points="269.41,70.99 274.65,76.06 274.65,98.77 272.34,99.76" fill="#444581" stroke="#32335F"/>
        <polygon points="280.01,81.24 290.93,91.80 280.01,96.48" fill="#444581" stroke="#32335F"/>
        <polygon points="274.65,101.23 274.65,98.77 272.34,99.76" fill="#403F80" stroke="#2F2F5F"/>
        <polygon points="280.01,104.62 295.66,114.53 290.93,91.80 280.01,96.48" fill="#403F80" stroke="#2F2F5F"/>
        <polygon points="322.19,114.56 295.66,114.53 315.31,93.55" fill="#403A80" stroke="#2F2B5F"/>
        <polygon points="295.66,114.53 290.93,91.80 315.31,93.55" fill="#444181" stroke="#32305F"/>
        <polygon points="331.74,101.98 322.19,114.56 315.31,93.55" fill="#3E3680" stroke="#2E285E"/>
        <polygon points="290.93,91.80 302.10,81.36 315.31,93.55" fill="#454181" stroke="#33305F"/>
        <polygon points="302.10,81.36 313.71,71.84 315.31,93.55" fill="#454081" stroke="#33305F"/>
        <polygon points="313.71,71.84 330.08,76.81 315.31,93.55" fill="#484281" stroke="#35315F"/>
        <polygon points="345.49,94.06 331.74,101.98 334.33,88.32" fill="#403580" stroke="#30275F"/>
        <polygon points="330.08,76.81 348.22,79.64 334.33,88.32" fill="#453B80" stroke="#332B5F"/>
        <polygon points="345.49,94.06 348.22,79.64 334.33,88.32" fill="#433780" stroke="#32285F"/>
        <polygon points="330.08,76.81 315.31,93.55 334.33,88.32" fill="#443C80" stroke="#322C5F"/>
        <polygon points="331.74,101.98 315.31,93.55 334.33,88.32" fill="#423980" stroke="#312A5F"/>
        <polygon points="384.52,96.78 377.88,101.51 365.61,89.70 384.52,93.35" fill="#3F287F" stroke="#2F1E5E"/>
        <polygon points="384.52,93.35 365.61,89.70 376.60,69.12 384.52,86.02" fill="#422B7F" stroke="#31205E"/>
        <polygon points="384.52,86.02 376.60,69.12 384.52,68.32" fill="#432B7F" stroke="#32205E"/>
        <polygon points="54.72,117.74 60.19,91.78 74.64,95.03 54.86,118.32" fill="#223673" stroke="#192855"/>
        <polygon points="74.64,95.03 96.42,99.89 95.69,103.36 79.42,118.00" fill="#223375" stroke="#192657"/>
        <polygon points="74.64,95.03 54.86,118.32 79.42,118.00" fill="#223473" stroke="#192655"/>
        <polygon points="95.69,103.36 79.42,118.00 93.54,113.50" fill="#233276" stroke="#1A2557"/>
        <polygon points="143.80,118.81 157.44,125.84 159.06,108.12 143.80,111.43" fill="#1D3C7E" stroke="#152D5D"/>
        <polygon points="143.80,111.43 159.06,108.12 143.80,94.03" fill="#193B7D" stroke="#132C5D"/>
        <polygon points="185.98,116.66 180.86,138.68 202.14,120.30" fill="#2D407F" stroke="#22305E"/>
        <polygon points="213.13,91.73 201.01,97.09 202.14,120.30" fill="#2D3D7F" stroke="#222D5E"/>
        <polygon points="213.13,91.73 227.44,118.49 202.14,120.30" fill="#344180" stroke="#27305F"/>
        <polygon points="201.01,97.09 185.98,116.66 202.14,120.30" fill="#2E3F7F" stroke="#222F5E"/>
        <polygon points="216.94,137.52 227.44,118.49 202.14,120.30" fill="#344180" stroke="#27305F"/>
        <polygon points="258.34,148.70 274.65,132.81 274.65,131.54 251.82,120.10" fill="#35397F" stroke="#272A5E"/>
        <polygon points="241.45,92.43 227.44,118.49 251.82,120.10" fill="#3C4480" stroke="#2D325F"/>
        <polygon points="241.45,92.43 272.34,99.76 251.82,120.10" fill="#3D4280" stroke="#2D315F"/>
        <polygon points="274.65,128.06 274.65,112.93 271.27,112.68" fill="#3C3C80" stroke="#2C2D5F"/>
        <polygon points="280.01,128.08 295.66,114.53 280.01,113.34" fill="#3C3C80" stroke="#2C2D5F"/>
        <polygon points="274.65,112.93 274.65,101.23 272.34,99.76 271.27,112.68" fill="#404180" stroke="#2F305F"/>
        <polygon points="280.01,113.34 295.66,114.53 280.01,104.62" fill="#404180" stroke="#2F305F"/>
        <polygon points="272.34,99.76 251.82,120.10 271.27,112.68" fill="#404481" stroke="#30325F"/>
        <polygon points="274.65,128.06 274.65,131.54 251.82,120.10 271.27,112.68" fill="#3B3E80" stroke="#2B2E5F"/>
        <polygon points="345.49,94.06 331.74,101.98 339.64,115.35" fill="#3E317F" stroke="#2E245E"/>
        <polygon points="331.74,101.98 322.19,114.56 339.64,115.35" fill="#3B2F7F" stroke="#2C235E"/>
        <polygon points="322.19,114.56 317.06,130.18 339.64,115.35" fill="#372C7F" stroke="#29215E"/>
        <polygon points="377.88,101.51 365.61,89.70 370.30,118.14" fill="#3B257D" stroke="#2C1B5D"/>
        <polygon points="365.61,89.70 345.49,94.06 370.30,118.14" fill="#3C297F" stroke="#2D1E5E"/>
        <polygon points="345.49,94.06 339.64,115.35 370.30,118.14" fill="#3C2B7F" stroke="#2C205E"/>
        <polygon points="384.52,110.57 377.88,101.51 384.52,96.78" fill="#3C227D" stroke="#2D195C"/>
        <polygon points="384.52,110.57 377.88,101.51 370.30,118.14 384.52,120.52" fill="#392177" stroke="#2A1858"/>
        <polygon points="54.86,118.32 79.42,118.00 64.72,142.51" fill="#223373" stroke="#192655"/>
        <polygon points="54.86,118.32 54.40,119.23 48.75,146.02 64.72,142.51" fill="#223472" stroke="#192654"/>
        <polygon points="88.23,138.56 79.42,118.00 93.54,113.50" fill="#243277" stroke="#1B2558"/>
        <polygon points="88.23,138.56 79.42,118.00 64.72,142.51 86.75,145.55" fill="#243275" stroke="#1B2557"/>
        <polygon points="143.80,138.75 148.41,139.88 157.44,125.84 143.80,132.64" fill="#1C3C7E" stroke="#152D5D"/>
        <polygon points="143.80,132.64 157.44,125.84 143.80,118.81" fill="#193C7D" stroke="#132D5D"/>
        <polygon points="143.80,150.68 148.41,139.88 143.80,138.75" fill="#1B3D7D" stroke="#142D5D"/>
        <polygon points="148.41,139.88 157.44,125.84 162.70,146.17" fill="#1F3C7E" stroke="#172C5D"/>
        <polygon points="157.44,125.84 180.86,138.68 162.70,146.17" fill="#233C7F" stroke="#1A2C5E"/>
        <polygon points="143.80,153.82 143.80,150.68 148.41,139.88 162.70,146.17" fill="#1A3A7D" stroke="#132B5D"/>
        <polygon points="180.86,138.68 182.60,154.41 162.70,146.17" fill="#273E7F" stroke="#1D2E5E"/>
        <polygon points="182.60,154.41 192.40,166.87 200.20,147.85" fill="#2A3D7F" stroke="#1F2D5E"/>
        <polygon points="180.86,138.68 182.60,154.41 200.20,147.85" fill="#2B3F7F" stroke="#202F5E"/>
        <polygon points="216.84,154.63 216.94,137.52 200.20,147.85" fill="#2E3D7F" stroke="#222D5E"/>
        <polygon points="216.94,137.52 202.14,120.30 200.20,147.85" fill="#2F3E7F" stroke="#232E5E"/>
        <polygon points="180.86,138.68 202.14,120.30 200.20,147.85" fill="#2C3E7F" stroke="#212E5E"/>
        <polygon points="258.34,148.70 256.01,162.57 236.74,147.63" fill="#2F367F" stroke="#23285E"/>
        <polygon points="221.90,169.40 216.84,154.63 236.74,147.63" fill="#2F3B7F" stroke="#222B5E"/>
        <polygon points="216.84,154.63 216.94,137.52 236.74,147.63" fill="#343F80" stroke="#262F5E"/>
        <polygon points="258.34,148.70 251.82,120.10 236.74,147.63" fill="#343B7F" stroke="#262B5E"/>
        <polygon points="216.94,137.52 227.44,118.49 236.74,147.63" fill="#354080" stroke="#272F5F"/>
        <polygon points="227.44,118.49 251.82,120.10 236.74,147.63" fill="#384080" stroke="#292F5F"/>
        <polygon points="280.20,153.70 280.01,152.82 280.01,133.52 299.60,140.28" fill="#34337F" stroke="#27265E"/>
        <polygon points="280.01,133.52 280.01,128.08 295.66,114.53 299.60,140.28" fill="#37357F" stroke="#29275E"/>
        <polygon points="317.06,130.18 295.66,114.53 299.60,140.28" fill="#35307F" stroke="#27235E"/>
        <polygon points="317.06,149.75 327.76,160.80 317.46,140.51" fill="#302678" stroke="#231C59"/>
        <polygon points="317.06,149.75 299.60,140.28 317.46,140.51" fill="#31297E" stroke="#251F5D"/>
        <polygon points="317.06,130.18 299.60,140.28 317.46,140.51" fill="#342C7F" stroke="#26215E"/>
        <polygon points="327.76,160.80 344.59,169.51 348.81,145.75" fill="#2F2272" stroke="#231954"/>
        <polygon points="344.59,169.51 363.84,158.78 348.81,145.75" fill="#312171" stroke="#241853"/>
        <polygon points="327.76,160.80 317.46,140.51 348.81,145.75" fill="#302476" stroke="#241B57"/>
        <polygon points="317.06,130.18 339.64,115.35 348.81,145.75" fill="#35277E" stroke="#271D5D"/>
        <polygon points="317.06,130.18 317.46,140.51 348.81,145.75" fill="#33277C" stroke="#261D5C"/>
        <polygon points="370.30,118.14 384.52,120.52 384.52,126.63 371.67,133.91" fill="#382076" stroke="#291857"/>
        <polygon points="339.64,115.35 370.30,118.14 371.67,133.91" fill="#37237A" stroke="#291A5A"/>
        <polygon points="339.64,115.35 348.81,145.75 371.67,133.91" fill="#352378" stroke="#271A59"/>
        <polygon points="363.84,158.78 348.81,145.75 371.67,133.91" fill="#342174" stroke="#261856"/>
        <polygon points="384.52,126.63 371.67,133.91 384.52,134.16" fill="#382075" stroke="#2A1757"/>
        <polygon points="66.74,188.09 50.88,188.09 54.41,166.62" fill="#263373" stroke="#1C2655"/>
        <polygon points="50.88,188.09 41.79,179.03 43.49,170.95 54.41,166.62" fill="#253372" stroke="#1B2654"/>
        <polygon points="43.49,170.95 46.51,156.62 54.41,166.62" fill="#243472" stroke="#1B2754"/>
        <polygon points="46.51,156.62 48.75,146.02 64.72,142.51 54.41,166.62" fill="#243472" stroke="#1A2655"/>
        <polygon points="64.72,142.51 86.75,145.55 85.43,151.77 73.45,162.77" fill="#243173" stroke="#1B2455"/>
        <polygon points="80.02,177.33 66.74,188.09 73.45,162.77" fill="#283378" stroke="#1E2659"/>
        <polygon points="66.74,188.09 54.41,166.62 73.45,162.77" fill="#263375" stroke="#1C2657"/>
        <polygon points="64.72,142.51 54.41,166.62 73.45,162.77" fill="#263476" stroke="#1C2658"/>
        <polygon points="85.43,151.77 73.45,162.77 83.49,160.96" fill="#263177" stroke="#1C2558"/>
        <polygon points="80.02,177.33 73.45,162.77 83.49,160.96" fill="#273176" stroke="#1D2457"/>
        <polygon points="143.80,171.76 148.18,173.18 143.80,159.52" fill="#183C7C" stroke="#122C5C"/>
        <polygon points="160.41,185.91 148.18,173.18 162.85,164.70" fill="#1D3A7E" stroke="#152B5D"/>
        <polygon points="148.18,173.18 143.80,159.52 143.80,155.27 162.85,164.70" fill="#1D3C7E" stroke="#152C5D"/>
        <polygon points="143.80,155.27 143.80,153.82 162.70,146.17 162.85,164.70" fill="#213D7E" stroke="#192D5E"/>
        <polygon points="182.60,154.41 162.70,146.17 162.85,164.70" fill="#223B7F" stroke="#192C5E"/>
        <polygon points="198.33,187.15 192.40,166.87 205.16,167.84" fill="#25387F" stroke="#1B295E"/>
        <polygon points="221.90,169.40 216.84,154.63 205.16,167.84" fill="#2B3A7F" stroke="#202B5E"/>
        <polygon points="216.84,154.63 200.20,147.85 205.16,167.84" fill="#2E3D7F" stroke="#222D5E"/>
        <polygon points="192.40,166.87 200.20,147.85 205.16,167.84" fill="#283A7F" stroke="#1E2B5E"/>
        <polygon points="216.63,188.09 221.90,169.40 238.67,172.91" fill="#29367F" stroke="#1E285E"/>
        <polygon points="221.90,169.40 236.74,147.63 238.67,172.91" fill="#29357F" stroke="#1F275E"/>
        <polygon points="256.01,162.57 236.74,147.63 238.67,172.91" fill="#2D367F" stroke="#22285E"/>
        <polygon points="256.01,162.57 274.65,171.77 274.65,173.63 258.91,175.38" fill="#282C7B" stroke="#1E215B"/>
        <polygon points="253.91,184.24 238.67,172.91 258.91,175.38" fill="#282F7E" stroke="#1E235D"/>
        <polygon points="256.01,162.57 238.67,172.91 258.91,175.38" fill="#282F7E" stroke="#1E235D"/>
        <polygon points="317.06,149.75 327.76,160.80 304.44,166.32" fill="#2F2679" stroke="#231C5A"/>
        <polygon points="315.43,191.00 295.87,187.38 304.44,166.32" fill="#2B2573" stroke="#201B55"/>
        <polygon points="295.87,187.38 280.01,175.05 280.01,172.69 304.44,166.32" fill="#2B2878" stroke="#201D59"/>
        <polygon points="280.01,172.69 280.01,155.21 280.20,153.70 304.44,166.32" fill="#2B297B" stroke="#201F5B"/>
        <polygon points="280.20,153.70 299.60,140.28 304.44,166.32" fill="#2E2B7E" stroke="#22205D"/>
        <polygon points="317.06,149.75 299.60,140.28 304.44,166.32" fill="#2F287A" stroke="#221E5A"/>
        <polygon points="363.84,158.78 361.92,182.38 384.11,165.35" fill="#311E6C" stroke="#241650"/>
        <polygon points="363.84,158.78 371.67,133.91 384.11,165.35" fill="#341F71" stroke="#271754"/>
        <polygon points="371.67,133.91 384.52,134.16 384.52,164.58 384.11,165.35" fill="#351E6F" stroke="#271652"/>
        <polygon points="39.88,188.09 50.88,188.09 41.79,179.03" fill="#253471" stroke="#1C2654"/>
        <polygon points="143.80,189.35 160.41,185.91 148.18,173.18 143.80,180.45" fill="#1B3C7E" stroke="#142C5D"/>
        <polygon points="143.80,180.45 148.18,173.18 143.80,171.76" fill="#1E407E" stroke="#162F5D"/>
        <polygon points="198.33,187.15 180.39,191.00 178.72,175.17" fill="#23397E" stroke="#1A2A5E"/>
        <polygon points="198.33,187.15 192.40,166.87 178.72,175.17" fill="#253A7F" stroke="#1B2B5E"/>
        <polygon points="180.39,191.00 160.41,185.91 178.72,175.17" fill="#213A7E" stroke="#182B5E"/>
        <polygon points="160.41,185.91 162.85,164.70 178.72,175.17" fill="#1F3A7E" stroke="#172B5E"/>
        <polygon points="182.60,154.41 192.40,166.87 178.72,175.17" fill="#243A7F" stroke="#1B2B5E"/>
        <polygon points="182.60,154.41 162.85,164.70 178.72,175.17" fill="#243B7F" stroke="#1A2C5E"/>
        <polygon points="216.63,188.09 221.90,169.40 209.35,184.36" fill="#25347E" stroke="#1B275D"/>
        <polygon points="221.90,169.40 205.16,167.84 209.35,184.36" fill="#28377F" stroke="#1D295E"/>
        <polygon points="216.63,188.09 198.33,187.15 209.35,184.36" fill="#21337E" stroke="#19265D"/>
        <polygon points="198.33,187.15 205.16,167.84 209.35,184.36" fill="#26377F" stroke="#1C295E"/>
        <polygon points="231.86,191.00 216.63,188.09 238.67,172.91 238.82,191.00" fill="#26327E" stroke="#1C255D"/>
        <polygon points="241.32,191.00 253.91,184.24 238.67,172.91 238.82,191.00" fill="#252D7A" stroke="#1B215B"/>
        <polygon points="274.65,176.24 274.65,173.63 258.91,175.38 259.67,190.64" fill="#282B7C" stroke="#1E205C"/>
        <polygon points="253.91,184.24 258.91,175.38 259.67,190.64" fill="#262B78" stroke="#1C2059"/>
        <polygon points="253.91,184.24 241.32,191.00 255.27,191.00 259.67,190.64" fill="#252C79" stroke="#1B205A"/>
        <polygon points="280.01,191.00 284.13,191.00 295.87,187.38 280.01,175.05" fill="#282774" stroke="#1E1D56"/>
        <polygon points="274.65,191.00 274.65,176.24 259.67,190.64 263.65,191.00" fill="#282A79" stroke="#1D1F59"/>
        <polygon points="327.76,160.80 344.59,169.51 325.47,177.00" fill="#2D2270" stroke="#221953"/>
        <polygon points="344.59,169.51 336.05,191.00 325.47,177.00" fill="#2D216D" stroke="#211851"/>
        <polygon points="336.05,191.00 315.43,191.00 325.47,177.00" fill="#2B226D" stroke="#201951"/>
        <polygon points="315.43,191.00 304.44,166.32 325.47,177.00" fill="#2C2472" stroke="#201B54"/>
        <polygon points="327.76,160.80 304.44,166.32 325.47,177.00" fill="#2E2576" stroke="#221B57"/>
        <polygon points="361.92,182.38 384.11,165.35 379.34,187.34" fill="#311E6B" stroke="#25164F"/>
        <polygon points="384.11,165.35 384.52,165.47 384.52,182.72 379.34,187.34" fill="#341E6D" stroke="#261651"/>
        <polygon points="384.52,182.72 379.34,187.34 384.52,186.54" fill="#311C68" stroke="#24154D"/>
        <polygon points="77.74,188.09 80.02,177.33 66.74,188.09" fill="#293277" stroke="#1E2558"/>
        <polygon points="180.39,191.00 160.41,185.91 158.71,191.00" fill="#1B377E" stroke="#14295D"/>
        <polygon points="143.80,191.00 158.71,191.00 160.41,185.91 143.80,189.35" fill="#18397D" stroke="#122A5C"/>
        <polygon points="212.48,191.00 216.63,188.09 198.33,187.15 196.88,191.00" fill="#1F327D" stroke="#17255C"/>
        <polygon points="196.88,191.00 198.33,187.15 180.39,191.00" fill="#1D337C" stroke="#16265C"/>
        <polygon points="217.60,191.00 216.63,188.09 231.86,191.00" fill="#212E7B" stroke="#19225B"/>
        <polygon points="217.60,191.00 216.63,188.09 212.48,191.00" fill="#1F307C" stroke="#17245C"/>
        <polygon points="255.27,191.00 259.67,190.64 259.39,191.00" fill="#232A75" stroke="#1A1F57"/>
        <polygon points="259.75,191.00 259.67,190.64 263.65,191.00" fill="#252874" stroke="#1C1E56"/>
        <polygon points="293.54,191.00 295.87,187.38 284.13,191.00" fill="#282673" stroke="#1D1C55"/>
        <polygon points="315.43,191.00 295.87,187.38 298.34,191.00" fill="#29236C" stroke="#1E1A50"/>
        <polygon points="298.34,191.00 295.87,187.38 293.54,191.00" fill="#27236D" stroke="#1D1A50"/>
        <polygon points="356.09,191.00 361.92,182.38 336.05,191.00" fill="#2D206B" stroke="#22174F"/>
        <polygon points="362.01,191.00 361.92,182.38 379.34,187.34 377.20,191.00" fill="#301E6B" stroke="#24164F"/>
        <polygon points="362.01,191.00 361.92,182.38 356.09,191.00" fill="#2E1E69" stroke="#22174E"/>
        <polygon points="380.22,191.00 379.34,187.34 377.20,191.00" fill="#301D69" stroke="#24164E"/>
        <polygon points="384.52,191.00 379.34,187.34 384.52,186.54" fill="#311D69" stroke="#25154E"/>
        <polygon points="384.50,191.00 379.34,187.34 380.22,191.00" fill="#321D6A" stroke="#25154E"/>
      </g>
    </g>
    <g clip-path="url(#tacui-clip-0)">
      <polygon points="244.36,66.91 269.41,70.99 241.45,92.43" fill="#8188F2" stroke="#767CDE"/>
      <polygon points="183.11,84.32 206.03,70.91 201.01,97.09" fill="#5274EE" stroke="#4A6AD9"/>
      <polygon points="206.03,70.91 213.13,91.73 201.01,97.09" fill="#5D7AEF" stroke="#5670DC"/>
      <polygon points="157.44,125.84 159.06,108.12 185.98,116.66" fill="#396EED" stroke="#3260CF"/>
      <polygon points="157.44,125.84 185.98,116.66 180.86,138.68" fill="#4876EE" stroke="#3F67D0"/>
      <polygon points="241.45,92.43 213.13,91.73 227.44,118.49" fill="#6E80F0" stroke="#6575DD"/>
      <polygon points="344.59,169.51 363.84,158.78 361.92,182.38" fill="#6136CA" stroke="#452791"/>
      <polygon points="344.59,169.51 361.92,182.38 336.05,191.00" fill="#5C36C6" stroke="#3F2589"/>
      <polygon points="274.65,152.43 258.34,148.70 256.01,162.57 274.65,155.73" fill="#5759ED" stroke="#4B4CCB"/>
      <polygon points="274.65,155.73 256.01,162.57 274.65,171.77" fill="#5553EC" stroke="#4745C5"/>
      <polygon points="274.65,132.81 258.34,148.70 274.65,152.43" fill="#6563EE" stroke="#5A58D5"/>
      <polygon points="322.19,114.56 317.06,130.18 295.66,114.53" fill="#7560EF" stroke="#6A57D7"/>
      <polygon points="365.61,89.70 359.12,65.86 376.60,69.12" fill="#8F62F0" stroke="#8259DA"/>
      <polygon points="26.81,24.84 40.74,23.46 40.72,21.00 27.64,21.00" fill="#83D8ED" stroke="#82D7EB"/>
      <polygon points="32.00,51.64 21.42,49.72 23.03,42.28 33.44,37.04" fill="#7DD9EC" stroke="#7AD4E5"/>
      <polygon points="23.03,42.28 25.59,30.46 33.44,37.04" fill="#7ADAEB" stroke="#79D8E9"/>
      <polygon points="40.74,23.46 26.81,24.84 25.59,30.46 33.44,37.04" fill="#81D8ED" stroke="#7FD5E8"/>
      <polygon points="50.73,21.00 40.74,23.46 40.72,21.00" fill="#83D4EE" stroke="#82D2EC"/>
      <polygon points="75.12,21.00 69.31,48.52 57.88,21.00" fill="#84CAF0" stroke="#7EC1E4"/>
      <polygon points="75.12,21.00 89.72,21.00 69.98,50.12 69.31,48.52" fill="#B8E9FF" stroke="#AFDEF3"/>
      <polygon points="149.36,21.00 126.67,21.00 127.09,22.68" fill="#5A99EE" stroke="#518AD7"/>
      <polygon points="126.67,21.00 121.48,21.00 127.09,22.68" fill="#6AAAEF" stroke="#629EDD"/>
      <polygon points="156.04,40.89 149.36,21.00 160.23,21.56" fill="#4278EE" stroke="#3A69D0"/>
      <polygon points="160.23,21.56 149.36,21.00 160.36,21.00" fill="#487AEE" stroke="#3F6AD0"/>
      <polygon points="32.00,51.64 33.44,37.04 55.87,40.61" fill="#75D1EC" stroke="#71C9E2"/>
      <polygon points="40.74,23.46 33.44,37.04 55.87,40.61" fill="#81D4ED" stroke="#7CCCE4"/>
      <polygon points="40.74,23.46 50.73,21.00 57.11,21.00 55.87,40.61" fill="#7DCFED" stroke="#7ACBE8"/>
      <polygon points="69.10,49.53 69.31,48.52 57.88,21.00 57.11,21.00 55.87,40.61" fill="#7BCBEE" stroke="#75C1E3"/>
      <polygon points="69.10,49.53 69.98,50.12 69.31,48.52" fill="#ADE8FF" stroke="#A5DEF3"/>
      <polygon points="78.41,51.64 69.98,50.12 89.72,21.00 90.01,21.00 88.09,51.64" fill="#B3E5FF" stroke="#A5D4EB"/>
      <polygon points="78.41,51.64 88.09,51.64 87.98,53.37" fill="#7A9CE6" stroke="#7090D4"/>
      <polygon points="106.64,51.64 90.28,21.00 90.01,21.00 88.09,51.64" fill="#B0E2FF" stroke="#9DC9E3"/>
      <polygon points="106.64,51.64 88.09,51.64 87.98,53.37" fill="#6C90E4" stroke="#6080CB"/>
      <polygon points="106.64,51.64 109.88,36.37 117.60,42.54" fill="#57A8ED" stroke="#4F97D6"/>
      <polygon points="106.64,51.64 90.28,21.00 90.62,21.00 109.88,36.37" fill="#A4DAFF" stroke="#94C5E6"/>
      <polygon points="109.88,36.37 111.53,28.55 117.60,42.54" fill="#65AFEE" stroke="#5EA2DD"/>
      <polygon points="109.88,36.37 90.62,21.00 108.26,21.00 111.53,28.55" fill="#A7DBFF" stroke="#9ACAEC"/>
      <polygon points="111.53,28.55 113.13,21.00 121.48,21.00 127.09,22.68 117.60,42.54" fill="#5BA3EE" stroke="#5394D8"/>
      <polygon points="111.53,28.55 108.26,21.00 113.13,21.00" fill="#A0D3FF" stroke="#91BFE7"/>
      <polygon points="156.04,40.89 142.71,51.64 138.30,36.75" fill="#3B7DEC" stroke="#326AC9"/>
      <polygon points="156.04,40.89 149.36,21.00 138.30,36.75" fill="#3D7DED" stroke="#376FD3"/>
      <polygon points="149.36,21.00 127.09,22.68 138.30,36.75" fill="#488AED" stroke="#407BD2"/>
      <polygon points="127.09,22.68 117.60,42.54 138.30,36.75" fill="#4791EC" stroke="#4082D4"/>
      <polygon points="142.71,51.64 117.60,42.54 138.30,36.75" fill="#438BEC" stroke="#3A79CD"/>
      <polygon points="205.75,65.86 206.03,70.91 213.90,65.86" fill="#5A75EF" stroke="#5068D3"/>
      <polygon points="241.48,65.86 244.36,66.91 243.97,65.86" fill="#6978F0" stroke="#606EDC"/>
      <polygon points="245.19,65.86 244.36,66.91 269.41,70.99 265.35,65.86" fill="#8085F2" stroke="#767BDF"/>
      <polygon points="245.19,65.86 244.36,66.91 243.97,65.86" fill="#707AF0" stroke="#6771DE"/>
      <polygon points="274.08,65.86 269.41,70.99 265.35,65.86" fill="#8987F2" stroke="#807FE3"/>
      <polygon points="341.65,65.86 341.50,66.37 359.12,65.86" fill="#9978F2" stroke="#8E70E1"/>
      <polygon points="359.12,65.86 376.60,69.12 377.36,65.86" fill="#9769F1" stroke="#8960DC"/>
      <polygon points="21.00,51.64 32.00,51.64 21.42,49.72" fill="#73D7EA" stroke="#6CCADC"/>
      <polygon points="32.00,51.64 55.87,40.61 54.31,51.64" fill="#68CAEA" stroke="#62BDDB"/>
      <polygon points="68.66,51.64 69.10,49.53 55.87,40.61 54.31,51.64" fill="#5ABFE9" stroke="#52AED5"/>
      <polygon points="68.66,51.64 68.77,51.64 69.98,50.12 69.10,49.53" fill="#9DE5FF" stroke="#8FD1E9"/>
      <polygon points="70.16,51.64 69.98,50.12 78.41,51.64" fill="#9BDEFF" stroke="#8CC9E6"/>
      <polygon points="70.16,51.64 78.41,51.64 87.98,53.37 72.91,74.62" fill="#496CBD" stroke="#4262AB"/>
      <polygon points="70.16,51.64 69.98,50.12 68.77,51.64" fill="#95E0FF" stroke="#85C8E3"/>
      <polygon points="70.16,51.64 68.77,51.64 68.62,51.83 63.88,74.28 72.91,74.62" fill="#496FC4" stroke="#4163AF"/>
      <polygon points="106.64,51.64 87.98,53.37 99.16,77.42" fill="#4161B8" stroke="#38539E"/>
      <polygon points="87.98,53.37 72.91,74.62 99.16,77.42" fill="#4264C0" stroke="#3957A6"/>
      <polygon points="106.64,51.64 117.60,42.54 119.69,51.64" fill="#3B91EA" stroke="#3480CF"/>
      <polygon points="142.71,51.64 117.60,42.54 119.69,51.64" fill="#3987EB" stroke="#3276CC"/>
      <polygon points="106.64,51.64 99.16,77.42 101.20,77.35" fill="#3D59BC" stroke="#344CA1"/>
      <polygon points="153.71,51.64 156.04,40.89 142.71,51.64" fill="#3571EC" stroke="#2F62CF"/>
      <polygon points="169.42,65.86 163.85,65.86 172.55,71.71" fill="#3571EC" stroke="#2F62CF"/>
      <polygon points="162.24,87.20 183.11,84.32 172.55,71.71" fill="#4272ED" stroke="#3963CE"/>
      <polygon points="169.42,65.86 174.84,65.86 172.55,71.71" fill="#366AEC" stroke="#2E5ACA"/>
      <polygon points="162.24,87.20 143.80,76.51 143.80,74.94 172.55,71.71" fill="#3770ED" stroke="#2F61CD"/>
      <polygon points="163.85,65.86 143.80,65.86 143.80,74.94 172.55,71.71" fill="#3070EB" stroke="#295FC9"/>
      <polygon points="191.87,65.86 194.01,65.86 192.61,68.66" fill="#4A70EE" stroke="#4263D2"/>
      <polygon points="206.03,70.91 205.75,65.86 194.01,65.86 192.61,68.66" fill="#4E6FEE" stroke="#4360CD"/>
      <polygon points="183.11,84.32 206.03,70.91 192.61,68.66" fill="#496EED" stroke="#4060CF"/>
      <polygon points="183.11,84.32 172.55,71.71 192.61,68.66" fill="#4570ED" stroke="#3D63D1"/>
      <polygon points="191.87,65.86 174.84,65.86 172.55,71.71 192.61,68.66" fill="#4570ED" stroke="#3D63D1"/>
      <polygon points="206.03,70.91 213.90,65.86 222.75,65.86 220.41,78.93" fill="#5D75EF" stroke="#5469D6"/>
      <polygon points="206.03,70.91 213.13,91.73 220.41,78.93" fill="#667FF0" stroke="#5C72D8"/>
      <polygon points="241.45,92.43 213.13,91.73 220.41,78.93" fill="#6A7DF0" stroke="#6071DA"/>
      <polygon points="227.30,65.86 241.48,65.86 244.36,66.91 232.37,75.41" fill="#6F7EF0" stroke="#6673DD"/>
      <polygon points="227.30,65.86 222.75,65.86 220.41,78.93 232.37,75.41" fill="#687BF0" stroke="#6072DD"/>
      <polygon points="244.36,66.91 241.45,92.43 232.37,75.41" fill="#7682F1" stroke="#6C77DB"/>
      <polygon points="241.45,92.43 220.41,78.93 232.37,75.41" fill="#6E7EF0" stroke="#6675DE"/>
      <polygon points="274.65,70.41 269.41,70.99 274.65,76.06" fill="#928CF3" stroke="#8A85E6"/>
      <polygon points="280.01,69.83 280.01,81.24 290.93,91.80 289.74,68.76" fill="#928CF3" stroke="#8A85E6"/>
      <polygon points="290.93,91.80 302.10,81.36 289.74,68.76" fill="#948AF3" stroke="#8B82E5"/>
      <polygon points="274.65,70.41 269.41,70.99 274.08,65.86 274.65,65.86" fill="#8F8AF3" stroke="#8681E3"/>
      <polygon points="280.01,69.83 280.01,65.86 289.63,65.86 289.74,68.76" fill="#8F8AF3" stroke="#8681E3"/>
      <polygon points="289.63,65.86 292.36,65.86 289.74,68.76" fill="#9086F2" stroke="#887EE5"/>
      <polygon points="319.49,65.86 312.34,65.86 313.71,71.84" fill="#9A89F3" stroke="#9080E3"/>
      <polygon points="312.34,65.86 292.36,65.86 289.74,68.76 313.71,71.84" fill="#9587F3" stroke="#8A7EE2"/>
      <polygon points="302.10,81.36 289.74,68.76 313.71,71.84" fill="#9387F3" stroke="#8B7FE5"/>
      <polygon points="327.58,65.86 340.43,65.86 341.50,66.37 330.08,76.81" fill="#977EF2" stroke="#8E77E4"/>
      <polygon points="327.58,65.86 319.49,65.86 313.71,71.84 330.08,76.81" fill="#9782F3" stroke="#907CE7"/>
      <polygon points="365.61,89.70 345.49,94.06 348.22,79.64" fill="#875FF0" stroke="#7B57DA"/>
      <polygon points="365.61,89.70 359.12,65.86 348.22,79.64" fill="#8F67F1" stroke="#825DDA"/>
      <polygon points="341.50,66.37 359.12,65.86 348.22,79.64" fill="#9472F1" stroke="#8B6BE3"/>
      <polygon points="341.50,66.37 330.08,76.81 348.22,79.64" fill="#9275F2" stroke="#876CDF"/>
      <polygon points="384.52,68.32 376.60,69.12 377.36,65.86 384.52,65.86" fill="#945EF0" stroke="#8655DA"/>
      <polygon points="63.88,74.28 72.91,74.62 62.59,80.39" fill="#4773D8" stroke="#3F65BE"/>
      <polygon points="72.91,74.62 99.16,77.42 74.64,95.03" fill="#4267D3" stroke="#3959B7"/>
      <polygon points="72.91,74.62 62.59,80.39 60.19,91.78 74.64,95.03" fill="#446EDB" stroke="#3B5FBD"/>
      <polygon points="99.06,87.45 99.16,77.42 74.64,95.03 96.42,99.89" fill="#4162D5" stroke="#3651B2"/>
      <polygon points="100.86,78.93 99.16,77.42 101.20,77.35" fill="#435ED8" stroke="#3950B9"/>
      <polygon points="100.86,78.93 99.16,77.42 99.06,87.45" fill="#425ED7" stroke="#384FB5"/>
      <polygon points="143.80,94.03 159.06,108.12 162.24,87.20 143.80,92.76" fill="#316FEC" stroke="#2B61CF"/>
      <polygon points="143.80,92.76 162.24,87.20 143.80,76.51" fill="#2F71EB" stroke="#2963CE"/>
      <polygon points="159.06,108.12 162.24,87.20 177.98,99.92" fill="#3A6FED" stroke="#315EC9"/>
      <polygon points="162.24,87.20 183.11,84.32 177.98,99.92" fill="#4271ED" stroke="#3A64D1"/>
      <polygon points="159.06,108.12 185.98,116.66 177.98,99.92" fill="#4A77EE" stroke="#416AD3"/>
      <polygon points="183.11,84.32 201.01,97.09 177.98,99.92" fill="#4E75EE" stroke="#4568D3"/>
      <polygon points="201.01,97.09 185.98,116.66 177.98,99.92" fill="#4C73EE" stroke="#4366D3"/>
      <polygon points="269.41,70.99 241.45,92.43 272.34,99.76" fill="#8285F2" stroke="#7A7CE1"/>
      <polygon points="269.41,70.99 274.65,76.06 274.65,98.77 272.34,99.76" fill="#8C88F2" stroke="#8581E6"/>
      <polygon points="280.01,81.24 290.93,91.80 280.01,96.48" fill="#8C88F2" stroke="#8581E6"/>
      <polygon points="274.65,101.23 274.65,98.77 272.34,99.76" fill="#827BF1" stroke="#7871DE"/>
      <polygon points="280.01,104.62 295.66,114.53 290.93,91.80 280.01,96.48" fill="#827BF1" stroke="#7871DE"/>
      <polygon points="322.19,114.56 295.66,114.53 315.31,93.55" fill="#826FF0" stroke="#7463D6"/>
      <polygon points="295.66,114.53 290.93,91.80 315.31,93.55" fill="#8C80F2" stroke="#8175DF"/>
      <polygon points="331.74,101.98 322.19,114.56 315.31,93.55" fill="#8066F0" stroke="#745DD9"/>
      <polygon points="290.93,91.80 302.10,81.36 315.31,93.55" fill="#8D80F2" stroke="#8477E2"/>
      <polygon points="302.10,81.36 313.71,71.84 315.31,93.55" fill="#8F7EF2" stroke="#8676E3"/>
      <polygon points="313.71,71.84 330.08,76.81 315.31,93.55" fill="#9581F2" stroke="#8977E0"/>
      <polygon points="345.49,94.06 331.74,101.98 334.33,88.32" fill="#8464F0" stroke="#7559D5"/>
      <polygon points="330.08,76.81 348.22,79.64 334.33,88.32" fill="#8F71F1" stroke="#8468DF"/>
      <polygon points="345.49,94.06 348.22,79.64 334.33,88.32" fill="#8A68F0" stroke="#7E60DD"/>
      <polygon points="330.08,76.81 315.31,93.55 334.33,88.32" fill="#8D74F1" stroke="#836CE1"/>
      <polygon points="331.74,101.98 315.31,93.55 334.33,88.32" fill="#886EF1" stroke="#7A63D8"/>
      <polygon points="384.52,96.78 377.88,101.51 365.61,89.70 384.52,93.35" fill="#8248EE" stroke="#703ECE"/>
      <polygon points="384.52,93.35 365.61,89.70 376.60,69.12 384.52,86.02" fill="#874FEF" stroke="#7947D6"/>
      <polygon points="384.52,86.02 376.60,69.12 384.52,68.32" fill="#8A4FEF" stroke="#7845D0"/>
      <polygon points="54.72,117.74 60.19,91.78 74.64,95.03 54.86,118.32" fill="#4067D5" stroke="#3556B0"/>
      <polygon points="74.64,95.03 96.42,99.89 95.69,103.36 79.42,118.00" fill="#4161D8" stroke="#3751B4"/>
      <polygon points="74.64,95.03 54.86,118.32 79.42,118.00" fill="#4062D3" stroke="#334EA9"/>
      <polygon points="95.69,103.36 79.42,118.00 93.54,113.50" fill="#435ED9" stroke="#364CB0"/>
      <polygon points="143.80,118.81 157.44,125.84 159.06,108.12 143.80,111.43" fill="#3675EC" stroke="#2E64C9"/>
      <polygon points="143.80,111.43 159.06,108.12 143.80,94.03" fill="#2D73EA" stroke="#2765CD"/>
      <polygon points="185.98,116.66 180.86,138.68 202.14,120.30" fill="#5A7EEF" stroke="#5171D7"/>
      <polygon points="213.13,91.73 201.01,97.09 202.14,120.30" fill="#5A77EF" stroke="#516BD6"/>
      <polygon points="213.13,91.73 227.44,118.49 202.14,120.30" fill="#6980F0" stroke="#5E74D9"/>
      <polygon points="201.01,97.09 185.98,116.66 202.14,120.30" fill="#5B7CEF" stroke="#526FD6"/>
      <polygon points="216.94,137.52 227.44,118.49 202.14,120.30" fill="#6980F0" stroke="#6075DB"/>
      <polygon points="258.34,148.70 274.65,132.81 274.65,131.54 251.82,120.10" fill="#6B6EEF" stroke="#6163D8"/>
      <polygon points="241.45,92.43 227.44,118.49 251.82,120.10" fill="#7B86F1" stroke="#717CDE"/>
      <polygon points="241.45,92.43 272.34,99.76 251.82,120.10" fill="#7D82F1" stroke="#7378DE"/>
      <polygon points="274.65,128.06 274.65,112.93 271.27,112.68" fill="#7A75F0" stroke="#716CDE"/>
      <polygon points="280.01,128.08 295.66,114.53 280.01,113.34" fill="#7A75F0" stroke="#716CDE"/>
      <polygon points="274.65,112.93 274.65,101.23 272.34,99.76 271.27,112.68" fill="#837FF1" stroke="#7773DB"/>
      <polygon points="280.01,113.34 295.66,114.53 280.01,104.62" fill="#837FF1" stroke="#7773DB"/>
      <polygon points="272.34,99.76 251.82,120.10 271.27,112.68" fill="#8485F2" stroke="#7B7CE1"/>
      <polygon points="274.65,128.06 274.65,131.54 251.82,120.10 271.27,112.68" fill="#7778F0" stroke="#6D6EDC"/>
      <polygon points="345.49,94.06 331.74,101.98 339.64,115.35" fill="#7F5CEF" stroke="#7354D9"/>
      <polygon points="331.74,101.98 322.19,114.56 339.64,115.35" fill="#7858EF" stroke="#684DD0"/>
      <polygon points="322.19,114.56 317.06,130.18 339.64,115.35" fill="#7051EE" stroke="#5E44C8"/>
      <polygon points="377.88,101.51 365.61,89.70 370.30,118.14" fill="#7940EA" stroke="#6737C8"/>
      <polygon points="365.61,89.70 345.49,94.06 370.30,118.14" fill="#7B49EE" stroke="#6B40CF"/>
      <polygon points="345.49,94.06 339.64,115.35 370.30,118.14" fill="#7A4EEE" stroke="#6943CD"/>
      <polygon points="384.52,110.57 377.88,101.51 384.52,96.78" fill="#7B3BE9" stroke="#6531C0"/>
      <polygon points="384.52,110.57 377.88,101.51 370.30,118.14 384.52,120.52" fill="#7338DD" stroke="#5D2DB2"/>
      <polygon points="54.86,118.32 79.42,118.00 64.72,142.51" fill="#4160D4" stroke="#344DA8"/>
      <polygon points="54.86,118.32 54.40,119.23 48.75,146.02 64.72,142.51" fill="#4162D2" stroke="#334DA4"/>
      <polygon points="88.23,138.56 79.42,118.00 93.54,113.50" fill="#455EDD" stroke="#394DB5"/>
      <polygon points="88.23,138.56 79.42,118.00 64.72,142.51 86.75,145.55" fill="#455FD9" stroke="#394EB3"/>
      <polygon points="143.80,138.75 148.41,139.88 157.44,125.84 143.80,132.64" fill="#3375EB" stroke="#2C67CE"/>
      <polygon points="143.80,132.64 157.44,125.84 143.80,118.81" fill="#2D75EA" stroke="#2662C5"/>
      <polygon points="143.80,150.68 148.41,139.88 143.80,138.75" fill="#3177EA" stroke="#2966C8"/>
      <polygon points="148.41,139.88 157.44,125.84 162.70,146.17" fill="#3973ED" stroke="#3367D3"/>
      <polygon points="157.44,125.84 180.86,138.68 162.70,146.17" fill="#4274ED" stroke="#3B69D6"/>
      <polygon points="143.80,153.82 143.80,150.68 148.41,139.88 162.70,146.17" fill="#2F70EA" stroke="#2960CB"/>
      <polygon points="180.86,138.68 182.60,154.41 162.70,146.17" fill="#4B78EE" stroke="#436BD5"/>
      <polygon points="182.60,154.41 192.40,166.87 200.20,147.85" fill="#5276EE" stroke="#4768D0"/>
      <polygon points="180.86,138.68 182.60,154.41 200.20,147.85" fill="#567BEF" stroke="#4C6DD4"/>
      <polygon points="216.84,154.63 216.94,137.52 200.20,147.85" fill="#5C77EF" stroke="#526AD6"/>
      <polygon points="216.94,137.52 202.14,120.30 200.20,147.85" fill="#5D7AEF" stroke="#556FD9"/>
      <polygon points="180.86,138.68 202.14,120.30 200.20,147.85" fill="#577AEF" stroke="#4F6FD9"/>
      <polygon points="258.34,148.70 256.01,162.57 236.74,147.63" fill="#5D66EE" stroke="#5057CC"/>
      <polygon points="221.90,169.40 216.84,154.63 236.74,147.63" fill="#5C71EF" stroke="#5164D2"/>
      <polygon points="216.84,154.63 216.94,137.52 236.74,147.63" fill="#687CF0" stroke="#5E70D9"/>
      <polygon points="258.34,148.70 251.82,120.10 236.74,147.63" fill="#6871EF" stroke="#5F67DA"/>
      <polygon points="216.94,137.52 227.44,118.49 236.74,147.63" fill="#6A7CF0" stroke="#6172DC"/>
      <polygon points="227.44,118.49 251.82,120.10 236.74,147.63" fill="#707DF0" stroke="#6672DB"/>
      <polygon points="280.20,153.70 280.01,152.82 280.01,133.52 299.60,140.28" fill="#6960EE" stroke="#5C55D1"/>
      <polygon points="280.01,133.52 280.01,128.08 295.66,114.53 299.60,140.28" fill="#7065EF" stroke="#655BD8"/>
      <polygon points="317.06,130.18 295.66,114.53 299.60,140.28" fill="#6C59EE" stroke="#5E4ED1"/>
      <polygon points="317.06,149.75 327.76,160.80 317.46,140.51" fill="#5F43E0" stroke="#4E37B6"/>
      <polygon points="317.06,149.75 299.60,140.28 317.46,140.51" fill="#634BEC" stroke="#533FC6"/>
      <polygon points="317.06,130.18 299.60,140.28 317.46,140.51" fill="#6851ED" stroke="#5945CA"/>
      <polygon points="327.76,160.80 344.59,169.51 348.81,145.75" fill="#5F3AD1" stroke="#462B9A"/>
      <polygon points="344.59,169.51 363.84,158.78 348.81,145.75" fill="#6138CE" stroke="#472997"/>
      <polygon points="327.76,160.80 317.46,140.51 348.81,145.75" fill="#603FD9" stroke="#4C32AD"/>
      <polygon points="317.06,130.18 339.64,115.35 348.81,145.75" fill="#6B46EC" stroke="#593AC4"/>
      <polygon points="317.06,130.18 317.46,140.51 348.81,145.75" fill="#6645E7" stroke="#5439C0"/>
      <polygon points="370.30,118.14 384.52,120.52 384.52,126.63 371.67,133.91" fill="#7037DA" stroke="#562AA7"/>
      <polygon points="339.64,115.35 370.30,118.14 371.67,133.91" fill="#6F3DE2" stroke="#5B32B9"/>
      <polygon points="339.64,115.35 348.81,145.75 371.67,133.91" fill="#6A3DDE" stroke="#522FAC"/>
      <polygon points="363.84,158.78 348.81,145.75 371.67,133.91" fill="#6838D5" stroke="#4D2A9E"/>
      <polygon points="384.52,126.63 371.67,133.91 384.52,134.16" fill="#7235D9" stroke="#5628A4"/>
      <polygon points="66.74,188.09 50.88,188.09 54.41,166.62" fill="#4A60D4" stroke="#3A4BA6"/>
      <polygon points="50.88,188.09 41.79,179.03 43.49,170.95 54.41,166.62" fill="#4761D0" stroke="#384CA4"/>
      <polygon points="43.49,170.95 46.51,156.62 54.41,166.62" fill="#4563D1" stroke="#364DA3"/>
      <polygon points="46.51,156.62 48.75,146.02 64.72,142.51 54.41,166.62" fill="#4462D2" stroke="#354CA3"/>
      <polygon points="64.72,142.51 86.75,145.55 85.43,151.77 73.45,162.77" fill="#455CD3" stroke="#3749A8"/>
      <polygon points="80.02,177.33 66.74,188.09 73.45,162.77" fill="#4E60DE" stroke="#3E4DB2"/>
      <polygon points="66.74,188.09 54.41,166.62 73.45,162.77" fill="#4A60D8" stroke="#3B4CAA"/>
      <polygon points="64.72,142.51 54.41,166.62 73.45,162.77" fill="#4962DB" stroke="#3A4FB0"/>
      <polygon points="85.43,151.77 73.45,162.77 83.49,160.96" fill="#4A5DDC" stroke="#3C4CB3"/>
      <polygon points="80.02,177.33 73.45,162.77 83.49,160.96" fill="#4B5CD9" stroke="#3D4BB0"/>
      <polygon points="143.80,171.76 148.18,173.18 143.80,159.52" fill="#2B73E8" stroke="#2563C6"/>
      <polygon points="160.41,185.91 148.18,173.18 162.85,164.70" fill="#3570EC" stroke="#2D5FC9"/>
      <polygon points="148.18,173.18 143.80,159.52 143.80,155.27 162.85,164.70" fill="#3674EC" stroke="#2F67D0"/>
      <polygon points="143.80,155.27 143.80,153.82 162.70,146.17 162.85,164.70" fill="#3F77ED" stroke="#386AD3"/>
      <polygon points="182.60,154.41 162.70,146.17 162.85,164.70" fill="#4173ED" stroke="#3965D0"/>
      <polygon points="198.33,187.15 192.40,166.87 205.16,167.84" fill="#476BED" stroke="#3C5BCB"/>
      <polygon points="221.90,169.40 216.84,154.63 205.16,167.84" fill="#556FEE" stroke="#4C64D5"/>
      <polygon points="216.84,154.63 200.20,147.85 205.16,167.84" fill="#5A77EF" stroke="#526CD8"/>
      <polygon points="192.40,166.87 200.20,147.85 205.16,167.84" fill="#4E71EE" stroke="#4765D6"/>
      <polygon points="216.63,188.09 221.90,169.40 238.67,172.91" fill="#5066ED" stroke="#4558CD"/>
      <polygon points="221.90,169.40 236.74,147.63 238.67,172.91" fill="#5164ED" stroke="#4656CD"/>
      <polygon points="256.01,162.57 236.74,147.63 238.67,172.91" fill="#5A66EE" stroke="#4F5AD1"/>
      <polygon points="256.01,162.57 274.65,171.77 274.65,173.63 258.91,175.38" fill="#4E51E5" stroke="#4042BC"/>
      <polygon points="253.91,184.24 238.67,172.91 258.91,175.38" fill="#4E58EC" stroke="#424AC7"/>
      <polygon points="256.01,162.57 238.67,172.91 258.91,175.38" fill="#4E57EC" stroke="#4148C4"/>
      <polygon points="317.06,149.75 327.76,160.80 304.44,166.32" fill="#5E44E2" stroke="#4B37B5"/>
      <polygon points="315.43,191.00 295.87,187.38 304.44,166.32" fill="#5441D3" stroke="#4132A3"/>
      <polygon points="295.87,187.38 280.01,175.05 280.01,172.69 304.44,166.32" fill="#5447DF" stroke="#4238B0"/>
      <polygon points="280.01,172.69 280.01,155.21 280.20,153.70 304.44,166.32" fill="#554BE4" stroke="#473EBD"/>
      <polygon points="280.20,153.70 299.60,140.28 304.44,166.32" fill="#5C4EEC" stroke="#4F42C9"/>
      <polygon points="317.06,149.75 299.60,140.28 304.44,166.32" fill="#5C48E4" stroke="#4C3ABA"/>
      <polygon points="363.84,158.78 361.92,182.38 384.11,165.35" fill="#6232C5" stroke="#45238A"/>
      <polygon points="363.84,158.78 371.67,133.91 384.11,165.35" fill="#6935CF" stroke="#4E279A"/>
      <polygon points="371.67,133.91 384.52,134.16 384.52,164.58 384.11,165.35" fill="#6B32CC" stroke="#4E2494"/>
      <polygon points="39.88,188.09 50.88,188.09 41.79,179.03" fill="#4862CF" stroke="#374B9E"/>
      <polygon points="143.80,189.35 160.41,185.91 148.18,173.18 143.80,180.45" fill="#3274EB" stroke="#2C65CE"/>
      <polygon points="143.80,180.45 148.18,173.18 143.80,171.76" fill="#377DEB" stroke="#306DCC"/>
      <polygon points="198.33,187.15 180.39,191.00 178.72,175.17" fill="#436DED" stroke="#3B61D2"/>
      <polygon points="198.33,187.15 192.40,166.87 178.72,175.17" fill="#476FED" stroke="#4063D4"/>
      <polygon points="180.39,191.00 160.41,185.91 178.72,175.17" fill="#3E6FED" stroke="#3661D0"/>
      <polygon points="160.41,185.91 162.85,164.70 178.72,175.17" fill="#3B6FED" stroke="#3260CC"/>
      <polygon points="182.60,154.41 192.40,166.87 178.72,175.17" fill="#4670ED" stroke="#3D63D1"/>
      <polygon points="182.60,154.41 162.85,164.70 178.72,175.17" fill="#4473ED" stroke="#3D68D6"/>
      <polygon points="216.63,188.09 221.90,169.40 209.35,184.36" fill="#4763ED" stroke="#3F58D2"/>
      <polygon points="221.90,169.40 205.16,167.84 209.35,184.36" fill="#4D6AED" stroke="#445DD0"/>
      <polygon points="216.63,188.09 198.33,187.15 209.35,184.36" fill="#3F60EC" stroke="#3550C5"/>
      <polygon points="198.33,187.15 205.16,167.84 209.35,184.36" fill="#496AED" stroke="#3E5BCB"/>
      <polygon points="231.86,191.00 216.63,188.09 238.67,172.91 238.82,191.00" fill="#495DEC" stroke="#3E4FC8"/>
      <polygon points="241.32,191.00 253.91,184.24 238.67,172.91 238.82,191.00" fill="#4653E4" stroke="#3A45BD"/>
      <polygon points="274.65,176.24 274.65,173.63 258.91,175.38 259.67,190.64" fill="#4E50E8" stroke="#3F41BC"/>
      <polygon points="253.91,184.24 258.91,175.38 259.67,190.64" fill="#484EDF" stroke="#3B40B6"/>
      <polygon points="253.91,184.24 241.32,191.00 255.27,191.00 259.67,190.64" fill="#4650E1" stroke="#383FB2"/>
      <polygon points="280.01,191.00 284.13,191.00 295.87,187.38 280.01,175.05" fill="#4E45D6" stroke="#3B35A3"/>
      <polygon points="274.65,191.00 274.65,176.24 259.67,190.64 263.65,191.00" fill="#4D4BE0" stroke="#3D3CB2"/>
      <polygon points="327.76,160.80 344.59,169.51 325.47,177.00" fill="#5A3BCD" stroke="#422B97"/>
      <polygon points="344.59,169.51 336.05,191.00 325.47,177.00" fill="#5838C6" stroke="#3E288D"/>
      <polygon points="336.05,191.00 315.43,191.00 325.47,177.00" fill="#553AC7" stroke="#3B288A"/>
      <polygon points="315.43,191.00 304.44,166.32 325.47,177.00" fill="#563FD1" stroke="#402F9C"/>
      <polygon points="327.76,160.80 304.44,166.32 325.47,177.00" fill="#5B40D9" stroke="#4732A9"/>
      <polygon points="361.92,182.38 384.11,165.35 379.34,187.34" fill="#6331C2" stroke="#432183"/>
      <polygon points="384.11,165.35 384.52,165.47 384.52,182.72 379.34,187.34" fill="#6830C6" stroke="#48228A"/>
      <polygon points="384.52,182.72 379.34,187.34 384.52,186.54" fill="#622EBC" stroke="#421F7F"/>
      <polygon points="77.74,188.09 80.02,177.33 66.74,188.09" fill="#505EDD" stroke="#3F4BAF"/>
      <polygon points="180.39,191.00 160.41,185.91 158.71,191.00" fill="#3069EC" stroke="#2A5CCE"/>
      <polygon points="143.80,191.00 158.71,191.00 160.41,185.91 143.80,189.35" fill="#2B6DE9" stroke="#245CC6"/>
      <polygon points="212.48,191.00 216.63,188.09 198.33,187.15 196.88,191.00" fill="#3A5EE9" stroke="#304EC2"/>
      <polygon points="196.88,191.00 198.33,187.15 180.39,191.00" fill="#3660E8" stroke="#2E52C6"/>
      <polygon points="217.60,191.00 216.63,188.09 231.86,191.00" fill="#3F56E5" stroke="#3548C0"/>
      <polygon points="217.60,191.00 216.63,188.09 212.48,191.00" fill="#3A5AE7" stroke="#2F49BD"/>
      <polygon points="255.27,191.00 259.67,190.64 259.39,191.00" fill="#434DD9" stroke="#353DAD"/>
      <polygon points="259.75,191.00 259.67,190.64 263.65,191.00" fill="#4848D6" stroke="#3838A6"/>
      <polygon points="293.54,191.00 295.87,187.38 284.13,191.00" fill="#4D44D4" stroke="#39339D"/>
      <polygon points="315.43,191.00 295.87,187.38 298.34,191.00" fill="#4F3CC5" stroke="#392B8D"/>
      <polygon points="298.34,191.00 295.87,187.38 293.54,191.00" fill="#4C3EC5" stroke="#352B89"/>
      <polygon points="356.09,191.00 361.92,182.38 336.05,191.00" fill="#5A35C2" stroke="#3D2484"/>
      <polygon points="362.01,191.00 361.92,182.38 379.34,187.34 377.20,191.00" fill="#6032C1" stroke="#422285"/>
      <polygon points="362.01,191.00 361.92,182.38 356.09,191.00" fill="#5B33BE" stroke="#3E2382"/>
      <polygon points="380.22,191.00 379.34,187.34 377.20,191.00" fill="#6130BE" stroke="#41207F"/>
      <polygon points="384.52,191.00 379.34,187.34 384.52,186.54" fill="#632EBD" stroke="#411F7D"/>
      <polygon points="384.50,191.00 379.34,187.34 380.22,191.00" fill="#642FBF" stroke="#431F80"/>
      <circle cx="69.98" cy="50.12" r="1.05" fill="#FFFFFF" fill-opacity="0.30"/>
      <circle cx="40.74" cy="23.46" r="1.05" fill="#FFFFFF" fill-opacity="0.30"/>
      <circle cx="221.90" cy="169.40" r="1.05" fill="#FFFFFF" fill-opacity="0.30"/>
      <circle cx="148.41" cy="139.88" r="1.05" fill="#FFFFFF" fill-opacity="0.30"/>
      <circle cx="157.44" cy="125.84" r="1.05" fill="#FFFFFF" fill-opacity="0.30"/>
      <circle cx="159.06" cy="108.12" r="1.05" fill="#FFFFFF" fill-opacity="0.30"/>
      <circle cx="183.11" cy="84.32" r="1.05" fill="#FFFFFF" fill-opacity="0.30"/>
      <circle cx="206.03" cy="70.91" r="1.05" fill="#FFFFFF" fill-opacity="0.30"/>
      <circle cx="241.45" cy="92.43" r="1.05" fill="#FFFFFF" fill-opacity="0.30"/>
      <circle cx="192.40" cy="166.87" r="1.05" fill="#FFFFFF" fill-opacity="0.30"/>
      <circle cx="216.84" cy="154.63" r="1.05" fill="#FFFFFF" fill-opacity="0.30"/>
      <circle cx="365.61" cy="89.70" r="1.05" fill="#FFFFFF" fill-opacity="0.30"/>
      <circle cx="344.59" cy="169.51" r="1.05" fill="#FFFFFF" fill-opacity="0.30"/>
      <circle cx="363.84" cy="158.78" r="1.05" fill="#FFFFFF" fill-opacity="0.30"/>
      <circle cx="295.66" cy="114.53" r="1.05" fill="#FFFFFF" fill-opacity="0.30"/>
      <circle cx="341.50" cy="66.37" r="1.05" fill="#FFFFFF" fill-opacity="0.30"/>
      <circle cx="33.44" cy="37.04" r="1.05" fill="#FFFFFF" fill-opacity="0.30"/>
      <circle cx="127.09" cy="22.68" r="1.05" fill="#FFFFFF" fill-opacity="0.30"/>
      <circle cx="55.87" cy="40.61" r="1.05" fill="#FFFFFF" fill-opacity="0.30"/>
      <circle cx="87.98" cy="53.37" r="1.05" fill="#FFFFFF" fill-opacity="0.30"/>
      <circle cx="117.60" cy="42.54" r="1.05" fill="#FFFFFF" fill-opacity="0.30"/>
      <circle cx="138.30" cy="36.75" r="1.05" fill="#FFFFFF" fill-opacity="0.30"/>
      <circle cx="72.91" cy="74.62" r="1.05" fill="#FFFFFF" fill-opacity="0.30"/>
      <circle cx="99.16" cy="77.42" r="1.05" fill="#FFFFFF" fill-opacity="0.30"/>
      <circle cx="220.41" cy="78.93" r="1.05" fill="#FFFFFF" fill-opacity="0.30"/>
      <circle cx="232.37" cy="75.41" r="1.05" fill="#FFFFFF" fill-opacity="0.30"/>
      <circle cx="330.08" cy="76.81" r="1.05" fill="#FFFFFF" fill-opacity="0.30"/>
      <circle cx="348.22" cy="79.64" r="1.05" fill="#FFFFFF" fill-opacity="0.30"/>
      <circle cx="74.64" cy="95.03" r="1.05" fill="#FFFFFF" fill-opacity="0.30"/>
      <circle cx="177.98" cy="99.92" r="1.05" fill="#FFFFFF" fill-opacity="0.30"/>
      <circle cx="315.31" cy="93.55" r="1.05" fill="#FFFFFF" fill-opacity="0.30"/>
      <circle cx="334.33" cy="88.32" r="1.05" fill="#FFFFFF" fill-opacity="0.30"/>
      <circle cx="54.86" cy="118.32" r="1.05" fill="#FFFFFF" fill-opacity="0.30"/>
      <circle cx="79.42" cy="118.00" r="1.05" fill="#FFFFFF" fill-opacity="0.30"/>
      <circle cx="251.82" cy="120.10" r="1.05" fill="#FFFFFF" fill-opacity="0.30"/>
      <circle cx="64.72" cy="142.51" r="1.05" fill="#FFFFFF" fill-opacity="0.30"/>
      <circle cx="162.70" cy="146.17" r="1.05" fill="#FFFFFF" fill-opacity="0.30"/>
      <circle cx="236.74" cy="147.63" r="1.05" fill="#FFFFFF" fill-opacity="0.30"/>
      <circle cx="299.60" cy="140.28" r="1.05" fill="#FFFFFF" fill-opacity="0.30"/>
      <circle cx="54.41" cy="166.62" r="1.05" fill="#FFFFFF" fill-opacity="0.30"/>
      <circle cx="73.45" cy="162.77" r="1.05" fill="#FFFFFF" fill-opacity="0.30"/>
      <circle cx="162.85" cy="164.70" r="1.05" fill="#FFFFFF" fill-opacity="0.30"/>
      <circle cx="205.16" cy="167.84" r="1.05" fill="#FFFFFF" fill-opacity="0.30"/>
      <circle cx="238.67" cy="172.91" r="1.05" fill="#FFFFFF" fill-opacity="0.30"/>
      <circle cx="304.44" cy="166.32" r="1.05" fill="#FFFFFF" fill-opacity="0.30"/>
      <circle cx="178.72" cy="175.17" r="1.05" fill="#FFFFFF" fill-opacity="0.30"/>
      <circle cx="325.47" cy="177.00" r="1.05" fill="#FFFFFF" fill-opacity="0.30"/>
      <path d="M156.04 40.89L142.71 51.64L106.64 51.64L80.02 177.33L66.74 188.09L50.88 188.09L42.15 177.32L68.66 51.64L32.00 51.64L23.33 40.89L25.31 31.75L38.64 21.00L149.36 21.00L158.03 31.75L156.04 40.89ZM258.34 148.70Q257.53 152.32 256.77 157.44Q256.01 162.57 255.37 168.10Q254.73 173.64 254.32 178.94Q253.91 184.24 253.91 188.09L216.63 188.09Q216.63 186.34 216.80 183.60Q216.98 180.86 217.21 178.01Q217.44 175.15 217.73 172.42Q218.03 169.68 218.26 167.81L217.79 167.81Q214.41 172.36 210.80 176.55Q207.19 180.75 202.76 183.95Q198.33 187.15 192.92 189.08Q187.50 191.00 180.39 191.00Q171.65 191.00 164.84 187.85Q158.02 184.71 153.36 178.77Q148.70 172.82 146.25 164.26Q143.80 155.69 143.80 144.86Q143.80 139.38 145.03 131.40Q146.25 123.42 149.45 114.62Q152.66 105.83 158.37 97.14Q164.08 88.46 172.99 81.47Q181.91 74.48 194.55 70.17Q207.19 65.86 224.32 65.86Q230.96 65.86 237.66 66.38Q244.36 66.91 250.83 67.78Q257.29 68.66 263.35 69.82Q269.41 70.99 274.65 72.15L258.34 148.70ZM233.29 92.89Q230.61 92.31 227.35 92.02Q224.08 91.73 221.17 91.73Q213.13 91.73 207.07 94.41Q201.01 97.09 196.53 101.40Q192.04 105.71 189.01 111.19Q185.98 116.66 184.18 122.31Q182.37 127.96 181.61 133.32Q180.86 138.68 180.86 142.76Q180.86 147.07 181.73 150.74Q182.60 154.41 184.47 157.09Q186.33 159.77 189.07 161.29Q191.81 162.80 195.42 162.80Q202.06 162.80 207.25 158.96Q212.43 155.11 216.34 149.11Q220.24 143.11 222.86 135.60Q225.48 128.08 227.11 120.74L233.29 92.89ZM377.88 101.51Q373.92 98.48 367.63 96.27Q361.34 94.06 354.00 94.06Q345.49 94.06 338.62 98.02Q331.74 101.98 326.96 108.27Q322.19 114.56 319.62 122.37Q317.06 130.18 317.06 137.75Q317.06 149.75 322.65 156.28Q328.25 162.80 339.43 162.80Q342.93 162.80 346.71 162.10Q350.50 161.40 354.23 160.18Q357.96 158.96 361.39 157.44Q364.83 155.93 367.63 154.18L361.92 182.38Q354.00 186.46 345.02 188.73Q336.05 191.00 327.08 191.00Q315.43 191.00 306.63 187.39Q297.83 183.78 291.89 177.25Q285.95 170.73 282.98 161.70Q280.01 152.67 280.01 141.83Q280.01 131.81 282.28 122.31Q284.55 112.82 288.86 104.43Q293.17 96.04 299.52 88.93Q305.87 81.82 314.09 76.70Q322.30 71.57 332.27 68.71Q342.23 65.86 353.76 65.86Q359.12 65.86 363.90 66.50Q368.68 67.14 372.64 68.13Q376.60 69.12 379.63 70.35Q382.66 71.57 384.52 72.62L377.88 101.51Z" fill="none" stroke="url(#tacui-rim-0)" stroke-width="3" stroke-linejoin="round"/>
      <polygon points="104.89,36.32 92.87,38.30 90.89,50.32 88.91,38.30 76.89,36.32 88.91,34.34 90.89,22.32 92.87,34.34" fill="#FFFFFF" fill-opacity="0.80"/>
      <polygon points="33.19,58.85 25.03,60.19 23.69,68.35 22.35,60.19 14.19,58.85 22.35,57.51 23.69,49.35 25.03,57.51" fill="#FFFFFF" fill-opacity="0.80"/>
    </g>
</g>
<g fill="url(#tacui-text-3)" fill-rule="nonzero">
  <path d="M277.96 61.60Q276.16 70.06 273.34 76.83Q270.52 83.61 265.87 88.35Q261.23 93.09 254.33 95.60Q247.43 98.12 237.48 98.12Q230.28 98.12 224.52 96.14Q218.77 94.16 214.75 90.42Q210.73 86.67 208.57 81.30Q206.41 75.93 206.41 69.10Q206.41 65.98 206.89 62.23Q207.37 58.48 208.09 55.24L217.69 10.62L237.24 10.62L227.52 55.36Q226.86 58.54 226.32 61.72Q225.78 64.90 225.78 67.12Q225.78 70.60 226.83 73.26Q227.88 75.93 229.77 77.73Q231.66 79.53 234.21 80.46Q236.76 81.39 239.70 81.39Q243.11 81.39 246.05 80.37Q248.99 79.35 251.33 77.01Q253.67 74.67 255.47 70.81Q257.27 66.94 258.47 61.24L269.38 10.62L288.93 10.62L277.96 61.60Z"/>
  <path d="M307.25 96.62L287.70 96.62L305.87 10.62L325.42 10.62L307.25 96.62Z"/>
</g>
</svg>
